<svg width="122" height="21" fill="none" xmlns="http://www.w3.org/2000/svg"><path fill-rule="evenodd" clip-rule="evenodd" d="M37.644 9.995v-.084c1.525-.707 2.294-1.994 2.294-3.874 0-1.457-.486-2.658-1.471-3.591-.971-.948-2.28-1.414-3.913-1.414h-7.097v19.355h6.652c2.213 0 3.859-.509 4.925-1.513 1.066-1.004 1.592-2.403 1.592-4.213 0-1.216-.297-2.234-.877-3.04-.58-.806-1.282-1.357-2.105-1.626zm-8.001-6.857h4.48c1.146 0 2.037.269 2.684.792.648.523.958 1.273.958 2.248 0 2.022-1.2 3.04-3.616 3.04h-4.506v-6.08zm7.65 14.294c-.769.566-1.93.863-3.481.863h-4.17v-7.027h4.224c1.579 0 2.739.254 3.481.777.742.524 1.106 1.386 1.106 2.63 0 1.258-.377 2.177-1.16 2.757zM49.95 5.556a2.987 2.987 0 00-.621-.071c-.567 0-1.12.155-1.66.466-.54.311-.958.764-1.241 1.358h-.054V5.725H44.31v14.662h2.158v-8.71c0-1.357.203-2.36.607-2.969.405-.622 1.053-.933 1.957-.933.472 0 .85.071 1.106.226l.392-2.233-.135-.085a2.348 2.348 0 00-.446-.127zm12.237 1.018c-.944-.834-2.226-1.258-3.845-1.258-1.458 0-2.645.396-3.562 1.202-.918.806-1.485 1.852-1.714 3.138l1.956.58c.405-1.937 1.539-2.898 3.4-2.898.986 0 1.714.212 2.2.622.486.41.728.933.728 1.57 0 .282-.067.522-.202.748-.135.227-.283.41-.459.552-.175.141-.472.297-.877.452-.404.156-.755.283-1.066.368-.31.099-.782.226-1.416.382-1.7.466-2.915 1.032-3.63 1.725-.715.692-1.066 1.64-1.066 2.855 0 1.202.405 2.192 1.201 2.984.796.791 1.97 1.187 3.522 1.187 1.106 0 2.037-.212 2.766-.65.742-.438 1.241-.89 1.497-1.372h.054v1.598h1.903v-9.84c.027-1.796-.445-3.11-1.39-3.945zm-.688 9.12c0 .862-.337 1.597-1.026 2.19-.688.595-1.66.906-2.927.906-1.849 0-2.766-.764-2.766-2.29 0-.651.215-1.174.647-1.57.432-.41 1.242-.778 2.442-1.131 2.146-.622 3.346-1.202 3.59-1.74h.053v3.634H61.5zM73.926 5.316c-.796 0-1.552.17-2.267.509-.715.34-1.282.777-1.66 1.315h-.053V5.726H67.84v14.661H70v-9.345c0-1.145.323-2.036.985-2.686.66-.65 1.538-.962 2.63-.962 2.146 0 3.225 1.372 3.225 4.086v8.907h2.132V10.76c0-1.682-.459-3.011-1.39-3.987-.93-.961-2.145-1.456-3.656-1.456zm20.374.409h-2.888l-5.883 6.73h-.054V.197h-2.159v20.19h2.16v-5.09l2.09-2.347h.055l4.803 7.437h2.51l-5.762-8.85L94.3 5.724zm11.886.849c-.944-.834-2.226-1.258-3.845-1.258-1.457 0-2.644.396-3.562 1.202-.917.806-1.484 1.852-1.713 3.138l1.956.58c.405-1.937 1.538-2.898 3.4-2.898.985 0 1.714.212 2.199.622.486.41.729.933.729 1.57 0 .282-.068.522-.202.748-.135.227-.284.41-.459.552-.176.141-.472.297-.877.452a11.68 11.68 0 01-1.066.368c-.31.099-.783.226-1.417.382-1.7.466-2.914 1.032-3.63 1.725-.714.692-1.065 1.64-1.065 2.855 0 1.202.405 2.192 1.2 2.984.797.791 1.97 1.187 3.522 1.187 1.107 0 2.038-.212 2.766-.65.742-.438 1.241-.89 1.498-1.372h.054v1.598h1.902v-9.84c.014-1.796-.459-3.11-1.39-3.945zm-.701 9.12c0 .862-.337 1.597-1.026 2.19-.688.595-1.659.906-2.927.906-1.849 0-2.766-.764-2.766-2.29 0-.651.215-1.174.647-1.57.432-.41 1.242-.778 2.442-1.131 2.146-.622 3.347-1.202 3.589-1.74h.054v3.634h-.013zm15.503-1.98c-.675-.693-1.916-1.3-3.738-1.838-1.7-.509-2.793-.919-3.278-1.216-.473-.297-.715-.75-.715-1.357 0-.551.242-1.032.742-1.442.485-.41 1.2-.608 2.104-.608 1.835 0 3.023.933 3.562 2.8l1.876-.524c-.297-1.272-.891-2.29-1.795-3.054-.89-.763-2.104-1.145-3.643-1.145-1.511 0-2.698.396-3.562 1.202-.863.806-1.295 1.753-1.295 2.827 0 1.075.351 1.923 1.053 2.545.701.623 1.915 1.188 3.643 1.683 1.659.48 2.739.905 3.265 1.272.512.368.782.92.782 1.655 0 .706-.283 1.258-.836 1.682-.553.424-1.39.636-2.496.636-2.321 0-3.616-1.286-3.886-3.846l-2.038.41c.162 1.584.729 2.885 1.7 3.889.972 1.003 2.389 1.512 4.237 1.512 1.781 0 3.103-.424 3.994-1.272.89-.848 1.336-1.852 1.336-3.011.013-1.174-.338-2.107-1.012-2.8zM20 8.765l-6.192-.015 3.103-5.486-3.808-2.25L10 6.502 6.911 1 3.103 3.25l3.089 5.5L0 8.736v4.499l6.192.015-3.103 5.486.028.014-.014.03 3.484 2.06.014-.029.282.174L9.986 15.5l3.089 5.5 3.808-2.25-3.089-5.5 6.192.014v-.029H20V9.113h-.014v-.348H20zm-6.63-6.72l1.017.595-3.343 5.733-.62-1.103 2.947-5.225zM4.134 3.569l1.03-.61 3.2 5.864H7.08L4.133 3.569zm-3.4 8.911v-1.103h6.559l-.635 1.118-5.924-.015zm5.882 7.475l-.987-.58 3.328-5.704.607 1.074-2.948 5.21zm9.267-1.48l-1.044.624-3.202-5.864h1.298l2.948 5.24zm3.385-5.98l-8.872-.015 3.808 6.982-.86.508-3.357-5.98-1.016-1.8-3.977 6.807-.889-.522 4.443-7.852H.733V9.549l8.886.014-3.822-6.981.86-.508 4.373 7.78 3.991-6.837.889.523-4.457 7.88h7.814v1.075zm0-1.829h-6.545l.663-1.16 5.882.014v1.146z" fill="#0A0016"/></svg>